<?xml version="1.0" encoding="UTF-8" standalone="no"?>
<!-- Created with Inkscape (http://www.inkscape.org/) -->

<svg
   version="1.1"
   id="svg1"
   width="640"
   height="640"
   viewBox="0 0 640 640"
   sodipodi:docname="rinne.svg"
   inkscape:version="1.4.3 (0d15f75, 2025-12-25)"
   xmlns:inkscape="http://www.inkscape.org/namespaces/inkscape"
   xmlns:sodipodi="http://sodipodi.sourceforge.net/DTD/sodipodi-0.dtd"
   xmlns="http://www.w3.org/2000/svg"
   xmlns:svg="http://www.w3.org/2000/svg">
  <defs
     id="defs1" />
  <sodipodi:namedview
     id="namedview1"
     pagecolor="#ffffff"
     bordercolor="#000000"
     borderopacity="0.25"
     inkscape:showpageshadow="2"
     inkscape:pageopacity="0.0"
     inkscape:pagecheckerboard="0"
     inkscape:deskcolor="#d1d1d1"
     inkscape:zoom="0.64765625"
     inkscape:cx="329.65018"
     inkscape:cy="291.04946"
     inkscape:window-width="973"
     inkscape:window-height="1211"
     inkscape:window-x="3915"
     inkscape:window-y="196"
     inkscape:window-maximized="0"
     inkscape:current-layer="g1" />
  <g
     inkscape:groupmode="layer"
     inkscape:label="Image"
     id="g1">
    <path
       style="fill:#000000"
       d="m 573.85445,639.25176 c -45.40496,-22.64407 -21.81107,-81.27312 -41.25402,-118.90128 -34.06507,-45.79103 18.91186,-74.20167 26.22778,-114.04024 27.91559,-25.55474 24.68365,-120.41043 -25.53275,-91.45568 -28.49682,41.4574 -62.18397,85.83121 -114.86477,96.2077 C 329.93781,425.85822 239.72588,438.21753 150.00465,430.5006 121.24106,437.1547 28.475967,441.16653 77.759234,393.56757 57.833169,400.5528 29.729826,420.74351 39.342537,409.2959 4.537537,446.88218 -15.613804,379.69429 0.61313799,353.20991 -0.05169381,237.46778 0.228109,121.72325 0.00151504,5.9800265 61.459466,-6.8200373 124.57482,3.6236836 186.8443,0.29720037 337.8962,0.13324952 488.9481,-0.03070133 640,-0.19465218 640,213.20357 640,426.60178 640,640 c -22.04894,-0.20869 -44.09816,-0.40709 -66.14555,-0.74824 z M 565,589 c -1.80037,-5.76693 -1.80037,5.76693 0,0 z m 2.68311,-63.1875 c -2.71736,5.08463 6.5735,-1.74126 0,0 z M 538.5,523 c -2.96079,-3.86549 0.40162,5.94253 0,0 z m -6,-15 c -2.96079,-3.86549 0.40162,5.94253 0,0 z m 4.5,-4.44098 c -3.15734,-5.83712 -1.34802,7.16486 0,0 z M 549.42402,496.75 c -5.72854,-6.357 4.64316,21.26413 0,0 z M 539,500 c -2.49141,-7.22396 -2.49141,7.22396 0,0 z m -4,-3 c 1.96071,-10.56636 -8.19347,4.41553 0,0 z m 10.39699,-0.83333 c -2.9137,-5.3722 -1.06779,6.37989 0,0 z M 541.03585,490.5 c 15.59399,-5.85279 -5.8976,-11.67247 0,0 z m -9.35273,1.51365 c 11.33346,-17.5931 -18.6907,4.09058 0,0 z m 15.99999,-3.20115 c -2.71736,5.08463 6.5735,-1.74126 0,0 z M 537,486 c -2.49141,-7.22396 -2.49141,7.22396 0,0 z m 11,-1 c -2.96079,-3.86549 0.40162,5.94253 0,0 z m -20.24238,-1.15762 c 14.03064,6.34447 1.80524,-16.61663 0,0 z m 22.70019,-3.97529 c -7.13636,7.10457 13.00499,9.91671 0,0 z M 556,476.5 c 11.03571,-5.38887 -9.85743,-1.41302 0,0 z m -19.30952,-1.04762 c -2.65792,-9.71014 -4.60607,18.31885 0,0 z m 3.88125,-6.21398 c -8.60352,-1.62447 5.92762,6.493 0,0 z m 14.42301,-1.22569 c 18.8315,-10.72251 -14.27098,-14.81632 0,0 z M 546,468.60699 c -3.32672,-7.0249 -2.29338,7.84302 0,0 z m -4.90428,-3.22233 c -9.2471,0.22056 4.3679,15.39568 0,0 z m 11.28584,0.0634 c -5.63133,2.02738 8.76934,6.62045 0,0 z m 16.91082,-0.3612 c -4.64465,-6.64957 -1.26062,7.94357 0,0 z M 525,463.88197 c -5.47466,-2.55353 3.04131,5.89182 0,0 z M 542.6644,462.5 c 21.99869,-3.15447 -14.30637,-2.65789 0,0 z M 521,460.44098 c -6.08281,-4.05001 3.9381,9.75722 0,0 z m 7.38156,1.00708 c -5.63133,2.02738 8.76934,6.62045 0,0 z m 16.3895,-6.26124 c -6.61157,-1.36038 4.88492,6.49774 0,0 z M 566,456 c -1.80037,-5.76693 -1.80037,5.76693 0,0 z m -18.25,-3.11197 c 6.07729,-9.12498 -7.76119,-5.09116 0,0 z M 563,451.37756 c -9.87162,0.64639 12.15795,10.20635 0,0 z m -4.5862,0.76192 c -2.84186,-7.10758 -2.71211,11.80761 0,0 z M 553,449.88197 c -5.47466,-2.55353 3.04131,5.89182 0,0 z m 4.57026,-2.76828 c 13.18345,15.09121 6.9438,-9.97185 0,0 z m -4.8204,-5.26516 c -7.35742,-3.5979 -1.63069,16.50607 0,0 z M 563.5,440 c -6.94995,-3.48075 4.08007,11.10316 0,0 z m 4.10699,-5.58179 c 16.50525,-7.44899 -7.65646,-5.22793 0,0 z M 570.5,433 c -2.96079,-3.86549 0.40162,5.94253 0,0 z M 63.748962,430.2642 c 17.617279,-8.30463 -20.308804,2.42401 0,0 z m 515.045918,-2.72575 c -7.48811,-4.98946 -0.36049,9.60665 0,0 z m -9.22715,-1.03436 c 18.05182,-0.76556 -7.51389,-7.84883 0,0 z m -387.20662,0.22179 c 70.9956,-24.21828 -47.7266,-112.48063 -38.18021,-27.48502 3.06872,16.45535 21.09895,31.35541 38.18021,27.48502 z m 9.63889,0.004 c -9.01506,-9.18964 7.83364,0.37213 0,0 z m 10.60631,-2.14587 c -6.77638,-14.3111 7.38296,1.22985 0,0 z M 176,423.16052 c 4.82497,-7.79294 4.20379,8.79849 0,0 z m 8.44225,-1.48921 c -7.53954,-5.52963 7.58148,-2.5904 0,0 z m -22.36305,-2.77806 c 1.91504,-10.14884 3.03719,7.22437 0,0 z m 17.17879,-1.55287 c -0.97143,-7.71156 6.14644,4.67317 0,0 z M 196,416.60699 c -0.7886,-5.66917 4.08983,3.60304 0,0 z M 187,414 c -0.39187,-6.14106 2.85935,3.82455 0,0 z m 12.54271,0.0691 c 6.25748,-6.46106 -1.60395,13.77643 0,0 z M 160,410 c -0.39187,-6.14106 2.85935,3.82455 0,0 z m 27.5,-1 c 2.96079,-3.86549 -0.40162,5.94253 0,0 z m 3.53041,-1.55 c 3.59751,-5.77832 -1.508,10.11405 0,0 z m 5.62758,0.87466 c -3.77678,-10.10325 6.11085,4.72057 0,0 z m -23.21696,-7.75331 c -0.78178,-8.56866 8.82982,12.38958 0,0 z m 9.81759,-3.98989 c -15.43898,-9.36457 6.61487,-4.66619 0,0 z M 194.5,398 c 4.27361,-3.97973 -1.27167,7.13728 0,0 z m -47.04377,-1.07082 c -8.1302,-5.23655 7.48947,-0.27588 0,0 z M 189,392.62244 c -12.13893,-12.53028 9.61398,1.49323 0,0 z m -37,0 c -2.42718,-5.39724 5.36594,1.79615 0,0 z m 5.73333,-0.74653 c -4.43434,-6.53306 6.36825,0.40549 0,0 z M 143.6,390.4 c -12.93609,-3.83743 4.63499,-3.61759 0,0 z m 12.4,-2.28197 c -3.04131,-5.89182 5.47466,2.55353 0,0 z m 22.58633,-3.60944 c 0.62039,-19.2409 6.9245,3.60952 0,0 z M 184,382.58333 c -14.8952,2.38043 3.38653,-6.48132 0,0 z M 145.68558,380.25 c -13.66414,-12.55552 8.62118,-3.12753 0,0 z m 34.12692,-3.93311 c -1.54356,-6.43035 4.89447,2.78644 0,0 z m -21.16312,-3.54964 c -11.29827,-7.07032 3.32661,-7.877 0,0 z m 17.05001,-5.72573 c -12.63369,-12.48587 8.59606,-2.92123 0,0 z m 409.78788,60.31522 c -10.40428,-4.92994 0.80086,16.25445 0,0 z M 592,428.05902 c 5.15686,-6.55354 -5.8461,1.43831 0,0 z M 230.11116,426.9313 c -5.55053,-31.24614 -23.00248,16.03885 0,0 z m -75.27561,-5.04415 c -0.78029,-35.69626 -52.10503,-22.55446 -12.94488,1.71974 l 6.58179,1.34521 z M 149,424.10699 c -0.54251,-8.36038 5.5507,5.88347 0,0 z m -4.25233,-4.64662 c 5.56514,-5.83553 -4.72232,22.20711 0,0 z m -5.19037,-10.87861 c -1.77261,-15.18503 7.29374,1.96166 0,0 z m -1.09842,-4.64829 c -4.23174,-5.71732 3.96323,1.91555 0,0 z M 131,386 c 1.80037,-5.76693 1.80037,5.76693 0,0 z m 135.5,39.99985 c 51.06841,12.32394 18.62269,-67.59977 -21.18272,-49.6519 -34.56275,15.00004 -17.93051,68.08452 21.18272,49.6519 z M 234,417 c -0.39187,-6.14106 2.85935,3.82455 0,0 z m 21,0 c -0.39187,-6.14106 2.85935,3.82455 0,0 z m 30,-1.44098 c -6.93046,-5.78675 5.76025,-0.57425 0,0 z m -47.41705,-2.42481 c -9.54515,0.18689 3.92043,-4.43068 0,0 z M 255,401.94098 c 3.79694,-3.71019 -0.73924,5.56501 0,0 z M 239.5,381 c -0.39187,-6.14106 2.85935,3.82455 0,0 z m -114.11186,43.50694 c -7.75732,-28.45751 -37.520699,15.30148 0,0 z m -25.930274,-0.57511 c -5.933124,-14.89974 -11.855591,12.63934 0,0 z M 91.5,423 c 1.681108,-5.30725 1.690155,5.70093 0,0 z m -6.5,0 c -1.800358,-5.76692 -1.800358,5.76692 0,0 z m 510.44721,-4.08541 c -5.08135,-4.40852 1.67073,6.51643 0,0 z M 121.8348,416.99561 c 14.98333,-14.07646 -17.9683,-8.37398 0,0 z m 472.55839,-0.25717 c -3.99681,-10.12309 -1.34744,21.94203 0,0 z M 23,415.39301 c -7.855166,-1.7735 10.433124,14.25928 0,0 z m 68,1.06532 c 9.96223,-13.70909 -7.914631,4.28888 0,0 z M 344,416.8 c 55.57749,-4.99326 117.37135,-32.03058 131.80987,-91.05596 11.37736,-49.69477 -65.82918,-66.88698 -86.66537,-26.87712 -2.83439,43.61231 -37.64717,72.56266 -81.16202,53.99224 -25.99321,-28.31414 -89.24537,1.47825 -43.23001,29.66476 39.74407,18.07994 102.74731,20.05139 132.73296,-14.16124 5.72112,-19.28987 41.59361,-51.36212 19.30273,-11.95485 C 398.70592,383.2087 367.27686,395.54721 344,416.8 Z M 407.5,378 c -0.39187,-6.14106 2.85935,3.82455 0,0 z m 38.57895,-8.58333 c 3.67786,3.12999 -7.44719,2.95308 0,0 z M 373.5,366 c -1.25716,-7.35869 4.13591,3.99485 0,0 z m 61.5856,0 c -10.19227,-4.45652 7.44847,-5.62997 0,0 z M 309,364 c 1.80037,-5.76693 1.80037,5.76693 0,0 z m 136.48475,-1.02467 c -8.40132,-8.35333 8.1426,0.86278 0,0 z M 446.5,344 c -0.39187,-6.14106 2.85935,3.82455 0,0 z m 1.5,-8.81854 c -4.05155,-5.56553 6.06524,1.45858 0,0 z m 11.65066,-6.64943 c 4.62065,-8.82236 -0.30649,16.17957 0,0 z m 5.81136,-16.34007 c -6.90918,-8.53415 10.15024,-1.13169 0,0 z M 458.5,309 c 10.61525,-3.61247 -3.1742,13.19162 0,0 z m -16.6875,-17.68311 c -1.54356,-6.43035 4.89447,2.78644 0,0 z m 25.93044,-1.19189 c -3.29229,-11.39856 7.15163,5.95616 0,0 z M 458,288.96862 c 0.63986,-6.6646 3.85474,5.30029 0,0 z M 416.5,288 c 2.96079,-3.86549 -0.40162,5.94253 0,0 z m 20.5,-2.05902 c 3.79694,-3.71019 -0.73924,5.56501 0,0 z m -17,-0.88196 c -5.15686,-6.55354 5.8461,1.43831 0,0 z m 33.73333,-0.18311 c -4.43434,-6.53306 6.36825,0.40549 0,0 z M 437,282.55902 c -6.93046,-5.78675 5.76025,-0.57425 0,0 z m 138,133 c 0.73924,-5.56501 -3.79694,3.71019 0,0 z M 19.458879,411.93347 c 10.415888,4.75475 1.045391,-9.04014 0,0 z m 6.270288,-0.53764 c -1.250632,-4.40723 -1.968774,3.87917 0,0 z M 576.36971,409.75 c 15.90379,-21.67735 -25.3466,-0.24422 0,0 z m 8.3134,-2.9375 c -2.71736,5.08463 6.5735,-1.74126 0,0 z M 568.5,405 c 1.25716,-7.35869 -4.13591,3.99485 0,0 z M 19,403.55902 c 0.739276,-5.56501 -3.796941,3.71019 0,0 z m 90.54112,-2.62555 -1.65534,-0.81804 z m -65.764367,-9.23154 c 20.757126,-14.07424 -12.633629,0.94993 0,0 z M 27,395 c 0.485878,-7.17028 -4.151001,4.83728 0,0 z m 179.36566,-26.51357 c -19.24965,-34.61008 -13.13857,52.11485 0.59887,5.87681 z m -15.18898,-2.03925 c 1.48536,-11.31126 3.28403,7.26774 0,0 z M 194,359.11803 c -3.04131,-5.89182 5.47466,2.55353 0,0 z M 575,388 c -1.80037,-5.76693 -1.80037,5.76693 0,0 z M 8.683114,385.8125 c -2.5601542,5.64827 7.028279,-2.24799 0,0 z M 35,387 c 0.391851,-6.14106 -2.859348,3.82457 0,0 z m 4.892616,-6.5 c 15.04477,-5.5886 9.13445,-20.49756 0,0 z m 30.19132,-0.56648 C 97.687895,333.63911 181.14139,328.10886 193.4299,280.93906 150.59694,258.68816 119.62829,318.82517 88.479368,336.36489 112.72521,317.17377 180.75896,266.69664 181.8962,275.45074 140.06825,306.46785 79.618154,327.53599 62.607906,381.00213 l 2.336011,0.79918 z M 64.63948,367.30615 c -3.139582,-6.64906 6.774039,4.10987 0,0 z m 7.819401,-0.37268 c 3.852762,-5.71942 0.371558,9.40219 0,0 z m -0.752679,-4.25671 c -6.149518,-8.3249 9.011933,-1.88798 0,0 z M 78,357.58356 c -3.451605,-7.60276 7.898426,2.1989 0,0 z m 7,-6.42857 c -0.702298,-10.20654 8.734237,6.00128 0,0 z M 108.23207,341 c -5.43575,-15.12195 9.28079,0.80971 0,0 z M 116.5,335 c -0.39187,-6.14106 2.85935,3.82455 0,0 z m -4.67741,-4.33404 c 2.32377,-14.72847 8.84396,3.6259 0,0 z m 347.85175,47.76886 c 4.38745,-11.91725 -14.29642,18.77893 0,0 z M 580,380 c -2.96079,-3.86549 0.40162,5.94253 0,0 z M 67.129298,345.60281 c 39.216682,-34.62462 -30.31032,22.04527 -0.833987,0.757 z M 32,373.44098 c -4.911377,0.41556 6.130399,4.8993 0,0 z m -9,-0.88196 c 0.739276,-5.56501 -3.796941,3.71019 0,0 z m 14.708716,-10.4434 c -10.698973,2.10303 14.849162,13.94665 0,0 z M 30.5,364 c -4.273657,-3.97969 1.271745,7.13731 0,0 z m 444.15369,-2.37096 c 28.85739,-8.74005 54.63126,-88.71596 9.34096,-70.52748 -14.28658,20.39962 -8.26508,47.2777 -9.34096,70.52748 z m -4.63838,-5.16475 c -4.85353,-6.24804 7.50135,1.48156 0,0 z M 477,355.66667 c -5.39309,-6.36095 6.76263,1.09867 0,0 z m 12.8125,-14.34978 c -1.54356,-6.43035 4.89447,2.78644 0,0 z m -0.25673,-13.22665 c -14.73333,-0.93418 5.78901,-14.64043 0,0 z m 4.25673,-6.77335 c -1.54356,-6.43035 4.89447,2.78644 0,0 z m 0.74497,-4.60605 c -2.0003,-15.98361 7.07248,8.37096 0,0 z M 486.25,311.35913 c -15.97247,1.28701 3.08108,-8.9107 0,0 z m -4.17105,0.0575 c 3.67786,3.12999 -7.44719,2.95308 0,0 z m 7,-2 c 3.67786,3.12999 -7.44719,2.95308 0,0 z m 7.11617,0.0288 c -17.90313,-9.32389 9.44515,-1.46638 0,0 z M 500,308.38226 c -4.70732,-6.21258 7.49751,0.97801 0,0 z M 491,305 c 1.80037,-5.76693 1.80037,5.76693 0,0 z m 8,-1.77776 c -4.14657,-9.44777 8.30554,2.62955 0,0 z m -1,-4.16322 c -5.15686,-6.55354 5.8461,1.43831 0,0 z M 509.71025,292 c 4.38576,-4.53246 -2.82831,10.94607 0,0 z M 506,287.94098 c 3.79694,-3.71019 -0.73924,5.56501 0,0 z m -18,-1.34736 c 4.92037,-5.71206 -0.51041,8.26476 0,0 z M 493,284 c 1.80037,-5.76693 1.80037,5.76693 0,0 z m -4.5,-1 c -1.95008,-7.25134 4.75599,3.5055 0,0 z m 21,0 c -1.97159,-8.46781 5.71208,4.25643 0,0 z m -9.10699,-1.58179 c -14.00204,-9.63855 9.47825,-3.16631 0,0 z m 9.1497,-1.34911 c -6.8159,-4.60124 4.99713,-0.91408 0,0 z M 490,279 c 2.49141,-7.22396 2.49141,7.22396 0,0 z m 7,-0.94098 c -5.15686,-6.55354 5.8461,1.43831 0,0 z m -463,84.5 c 0.739276,-5.56501 -3.796941,3.71019 0,0 z m 10.017195,-3.57621 c -5.62151,-6.73436 -5.412765,20.6912 0,0 z M 36.5,355 c -2.960801,-3.86549 0.40161,5.94253 0,0 z m 6.610761,-3.28924 c -8.642556,-1.15092 6.132381,6.99704 0,0 z M 51,350 c -4.1821,-4.78685 0.492132,7.11567 0,0 z m 443.5,0 c -2.96079,-3.86549 0.40162,5.94253 0,0 z M 45,347.61663 c 9.643321,-9.73237 -7.6786,-5.3789 0,0 z m 15.279585,-5.77275 c -13.314088,-16.41355 -6.840259,18.44636 0,0 z m -32.259529,3.68029 c 2.549435,-16.96919 -6.752844,2.33479 0,0 z M 497.12756,346.25 c -8.17706,2.05177 4.87634,13.2213 0,0 z M 42.950103,339.05232 c 19.327198,-15.51009 -14.518251,-3.0448 0,0 z M 347,342.39301 c -3.85474,-5.30029 -0.63986,6.6646 0,0 z M 24.183333,340.78333 c -2.07018,5.58004 9.486886,-3.38147 0,0 z M 55.607954,341.25 c 11.846301,-12.90147 -6.995176,1.4088 0,0 z m 14.73818,-5.95715 C 98.779245,288.90978 211.03405,280.74565 189.47083,215.96034 144.88569,190.63565 112.17905,244.97258 74.321889,260.0136 59.56974,271.89157 23.216735,281.64336 60.876418,278.23648 c 42.428442,15.87995 -25.456886,70.68413 9.469716,57.05637 z m -2.326078,-2.81702 c -3.506645,-10.48623 5.849207,0.76663 0,0 z M 66,327.40751 c 8.281405,-6.58646 3.001148,12.20082 0,0 z m -3,-4.24016 c 2.786671,-14.11859 12.214322,8.65616 0,0 z m 13.510081,-1.18366 c 1.040828,-6.13414 2.587148,4.74107 0,0 z M 81,320.62244 c -8.720961,-14.50806 6.475048,1.46467 0,0 z m 10.595012,-7.83319 c -9.333512,-8.0515 9.143188,0.65376 0,0 z M 83,311 c 5.263792,-5.49496 -0.508501,8.23857 0,0 z m 6.5,-5 c 2.960801,-3.86549 -0.40161,5.94253 0,0 z m 3.5,-1.5 c 1.935452,-7.1112 1.935452,7.1112 0,0 z m 8,-2.5 c -0.48586,-7.17028 4.151,4.83729 0,0 z m -15,-3.5 c 1.935452,-7.1112 1.935452,7.1112 0,0 z m 12.738,-0.16287 c -10.903468,-1.92324 5.6912,-6.11946 0,0 z m -0.659053,-7.92046 c 3.677783,3.12982 -7.447123,2.95329 0,0 z M 86,289 c 1.800358,-5.76692 1.800358,5.76692 0,0 z m 27,-3.5 c 4.03289,-3.77832 -2.13996,8.24224 0,0 z m 3.5,0.5 c -0.39187,-6.14106 2.85935,3.82455 0,0 z m 17.01008,-5.01631 c 1.04083,-6.13414 2.58715,4.74107 0,0 z M 122,278.58333 c -0.83691,-10.65861 4.80843,6.1809 0,0 z M 128,278 c 6.5581,-1.28092 -4.16405,13.66922 0,0 z m -20.98469,-2.19098 c -12.713778,-6.6075 7.39193,-3.34188 0,0 z m 7.71222,-1.87511 c 6.5749,-0.16577 -8.32049,6.91567 0,0 z m -31.069539,-0.60925 c -8.407076,-11.62683 13.032555,2.28184 0,0 z M 77,271.46862 c -2.237559,-7.32592 4.804519,3.7664 0,0 z m 24.57003,0.64469 c -2.283521,-9.70285 5.77717,5.21614 0,0 z M 112,269.2872 c 3.52385,-6.88402 2.35265,8.61943 0,0 z m -2.5,-4.48215 c -6.89769,-12.61752 9.70679,-2.22367 0,0 z m 15.5,0.13593 c 3.79694,-3.71019 -0.73924,5.56501 0,0 z m -8.48992,-4.95729 c 1.04083,-6.13414 2.58715,4.74107 0,0 z M 109,255 c -0.39187,-6.14106 2.85935,3.82455 0,0 z m 6,-0.55902 c 4.91134,0.41577 -6.1306,4.89918 0,0 z M 142.5,255 c 2.96079,-3.86549 -0.40162,5.94253 0,0 z M 119,253 c -0.39187,-6.14106 2.85935,3.82455 0,0 z m -8.1875,-1.68311 c -1.54356,-6.43035 4.89447,2.78644 0,0 z m 15.64638,-0.38342 c 6.97571,-4.42289 -3.88591,17.88942 0,0 z M 137.5,250 c -1.95008,-7.25134 4.75599,3.5055 0,0 z M 113,249 c 4.18212,-4.78683 -0.49212,7.11567 0,0 z m -8.5,-4 c -0.39187,-6.14106 2.85935,3.82455 0,0 z m 10.7619,-2.69048 c -0.50444,-16.34759 6.02943,3.61268 0,0 z M 144,237.94098 c 3.79694,-3.71019 -0.73924,5.56501 0,0 z m 11,-6.88196 c -9.59524,-5.86087 4.9166,-3.56791 0,0 z m 28.37429,-10.52603 c -15.98767,-1.28133 4.31273,-7.23115 0,0 z M 300,341 c -1.80037,-5.76693 -1.80037,5.76693 0,0 z M 8.5,339 c -4.7805684,-5.49328 0.2540102,8.14521 0,0 z m 338.5,0 c -2.96079,-3.86549 0.40162,5.94253 0,0 z m 2.80687,-4.52646 c -4.73807,-0.19284 3.12825,3.77979 0,0 z m -19.35966,-0.55895 c -5.08135,-4.40852 1.67073,6.51643 0,0 z m 21.2359,-0.10209 c -2.71736,5.08463 6.5735,-1.74126 0,0 z M 23,334 c -2.491417,-7.22397 -2.491417,7.22397 0,0 z m 28,-0.93358 c 9.80019,6.62139 3.783028,-8.46732 0,0 z M 297,333 c 3.91778,-15.05805 -7.51644,3.3305 0,0 z m 7.80687,-1.52646 c -4.73807,-0.19284 3.12825,3.77979 0,0 z M 44.896975,327.5 c 20.023654,-11.94106 -8.450958,-28.05442 0,0 z M 340,329.88197 c -5.47466,-2.55353 3.04131,5.89182 0,0 z M 298.5,328 c -2.96079,-3.86549 0.40162,5.94253 0,0 z m 55.28776,-2.13671 c -5.55726,2.94121 6.87797,1.91302 0,0 z M 29,323.88197 c -5.474684,-2.55346 3.041384,5.8918 0,0 z M 300,325 c 0.39187,-6.14106 -2.85935,3.82455 0,0 z M 54.513834,320.1805 c -8.611935,-1.41964 5.576229,7.64573 0,0 z m 514.583846,-1.89908 c -4.12001,10.38145 13.58709,-2.71605 0,0 z m -533.999163,0.34934 c -11.53611,-8.96502 3.268484,7.78762 0,0 z M 45,318.94098 c -5.814523,-5.37526 2.705149,11.93906 0,0 z M 319.36163,320.5 c 2.72066,-8.25283 -4.13042,2.45457 0,0 z M 14.5,320 c -4.8688388,-3.41555 1.952283,7.05726 0,0 z m 13.5,0 c -9.549648,-1.64344 3.612235,17.63567 0,0 z m 300.80687,-1.52646 c -4.73807,-0.19284 3.12825,3.77979 0,0 z M 297,319 c -2.96079,-3.86549 0.40162,5.94253 0,0 z m 40,0 c 2.76442,-6.92065 -5.69598,2.89995 0,0 z m 6,-2 c 2.53114,-10.70405 -3.92936,3.28126 0,0 z M 37.865682,314.41713 c 13.817511,-8.83835 -11.330456,1.23951 0,0 z M 335.5,316 c -2.96079,-3.86549 0.40162,5.94253 0,0 z m -21.96896,-1.94978 c -0.73761,-9.12658 -3.41017,4.55512 0,0 z M 44,314.62244 c 3.387368,-8.97123 -7.816963,4.37161 0,0 z M 32,313 c -4.1821,-4.78685 0.492132,7.11567 0,0 z m 39.711016,-9.61303 c -8.482133,-22.47091 -7.694317,20.32133 -0.435181,1.30288 z M 65.5,293 c -0.254009,-8.14521 4.780568,5.49328 0,0 z M 62,291.94098 c 3.796941,-3.71019 -0.739276,5.56501 0,0 z m 51.1062,17.72042 c 13.10949,-10.80279 78.38816,-51.05475 30.46548,-25.12523 -11.19552,6.98612 -21.62377,15.30028 -30.46548,25.12523 z m -49.286649,-0.48973 c -6.23701,-7.70811 2.956347,16.87776 0,0 z M 303,310.44098 c -4.91134,0.41577 6.1306,4.89918 0,0 z M 308.5,311 c -4.27361,-3.97973 1.27167,7.13728 0,0 z m 41.04112,-0.0665 c -5.35105,-4.19784 3.28276,13.11829 0,0 z M 16,309.44098 c -4.911374,0.41558 6.13042,4.89929 0,0 z M 27,310 c -2.960801,-3.86549 0.40161,5.94253 0,0 z m 306,-1 c 0.39187,-6.14106 -2.85935,3.82455 0,0 z M 38.556199,304.22287 c -7.965111,-1.18996 5.444822,6.39521 0,0 z M 336,306 c -2.96079,-3.86549 0.40162,5.94253 0,0 z M 54.588397,302.25506 c -6.240839,4.61114 9.863258,0.9414 0,0 z m -27.0134,-1.0134 c -7.193803,0.14333 7.080377,5.42169 0,0 z m 48.445059,1.23417 c -0.692963,-7.86564 -6.377261,13.95306 0,0 z M 346.5,301 c 1.95008,-7.25134 -4.75599,3.5055 0,0 z m 7.30687,-1.52646 c -4.73807,-0.19284 3.12825,3.77979 0,0 z m -13.07331,-0.58657 c -6.92547,-2.54729 8.65343,16.94804 0,0 z M 41.5,295.5 c -2.510935,-11.74632 -1.574457,12.53015 0,0 z m 10.7575,0.37803 c 11.038428,-13.05057 -11.839828,-6.56381 0,0 z M 38,296.55902 c 0.739276,-5.56501 -3.796941,3.71019 0,0 z M 45.361626,294.5 c 2.720698,-8.25283 -4.13043,2.45455 0,0 z M 56,291 c -1.788648,-9.1779 -2.838744,8.5952 0,0 z m -17.581787,-0.60699 c 12.265413,-2.96316 -6.593687,-2.40794 0,0 z M 204.68311,286.8125 c -2.71736,5.08463 6.5735,-1.74126 0,0 z m -140.999996,-6 c -2.717358,5.08461 6.573496,-1.74124 0,0 z m 140.999996,-4 c -2.71736,5.08463 6.5735,-1.74126 0,0 z M 64,273 c 0.391851,-6.14106 -2.859348,3.82457 0,0 z m 141,-4 c -2.49141,-7.22396 -2.49141,7.22396 0,0 z m 67,-4.52336 c 56.76456,-20.80014 116.52009,-31.19738 175.54058,-43.32433 19.29275,-21.81502 99.26985,2.85302 66.1083,-46.94239 -46.24235,-3.26189 -93.48946,23.60505 -141.92501,28.32702 -23.73493,11.03335 -142.47763,25.1658 -99.72387,61.9397 z m 184.56429,-56.76977 c -6.16457,-4.68871 5.51256,-2.0247 0,0 z M 483.5,208 c -0.39187,-6.14106 2.85935,3.82455 0,0 z m 26.10017,-5.26145 c -5.16499,-38.39412 28.31941,14.83137 0,0 z m -74.52122,-2.32188 c 3.67786,3.12999 -7.44719,2.95308 0,0 z m 46.52974,-0.24081 c -5.43908,-4.23813 5.89618,-0.0549 0,0 z M 477,196 c -0.0107,-17.70136 4.59775,7.99373 0,0 z m 43.01531,1.33179 c -10.95649,-2.30428 7.97055,-4.43474 0,0 z M 479.1875,189.9375 c -7.68713,-10.32792 7.57247,1.31818 0,0 z M 475.5,188 c -0.39187,-6.14106 2.85935,3.82455 0,0 z m 31.5,-1.5 c -6.06164,-14.69171 5.70706,2.5094 0,0 z M 459.5,186 c -1.95008,-7.25134 4.75599,3.5055 0,0 z m 27.04832,0.0782 c -9.35958,-1.47035 5.55988,-5.58217 0,0 z m -13.98403,-1.78505 c 5.60185,2.53229 -7.58705,8.43594 0,0 z m 35.01573,-2.16366 c -3.52397,-9.39346 8.31989,2.37457 0,0 z M 517.5,182 c 2.96079,-3.86549 -0.40162,5.94253 0,0 z M 22.336943,242.46461 C 73.507309,202.70064 146.42463,198.93387 190.03327,148.17779 184.32474,99.847247 190.31741,34.0849 146.68412,2.9932574 99.072411,-7.5427991 81.017837,46.484603 69.710415,81.721254 48.937052,133.96008 24.201786,185.69467 17.143638,242.1483 l 2.548839,0.95229 z M 132.5,184 c -1.60444,-10.49269 5.86136,4.956 0,0 z m 53.08295,-48.86579 c -9.54515,0.18689 3.92043,-4.43068 0,0 z M 188,132 c 1.80037,-5.76693 1.80037,5.76693 0,0 z m -4.84211,-16 c 0.80601,-4.90352 0.80601,4.90352 0,0 z m -1.07894,-5.58333 c 3.67786,3.12999 -7.44719,2.95308 0,0 z M 282.4886,227.75093 c 46.09124,-19.16106 124.96827,-34.85222 154.14247,-45.0794 -57.70271,9.28635 -113.26082,28.14058 -168.13958,47.73024 1.74895,9.21076 9.19846,-5.01807 13.99711,-2.65084 z m -9.78565,-1.87544 C 345.39025,199.9095 420.16544,177.11753 497.5,171.12798 c -60.91189,0.84136 -120.16939,17.35187 -177.78003,35.79517 64.03019,-27.23103 133.74596,-38.17919 202.89805,-41.20783 5.01985,-48.63658 -55.95585,-62.71165 -82.87258,-62.83142 -33.96001,-35.986776 -76.63675,21.63009 -115.95343,25.62555 -50.53817,13.65039 -53.52152,54.70089 -51.08906,97.36604 z M 292,215 c 8.81864,-8.73591 16.60622,3.60511 0,0 z m 48,-31 c 6.5581,-1.28092 -4.16405,13.66922 0,0 z m 9.5,-1 c -0.39187,-6.14106 2.85935,3.82455 0,0 z m 2.5,-2.03138 c 0.63986,-6.6646 3.85474,5.30029 0,0 z m 54,-8.02764 c 3.79694,-3.71019 -0.73924,5.56501 0,0 z M 413.5,172 c 2.96079,-3.86549 -0.40162,5.94253 0,0 z m -2.75,-5.66228 c -0.30703,-6.11958 4.11636,3.72883 0,0 z m 51.25,-0.7787 c -6.93046,-5.78675 5.76025,-0.57425 0,0 z M 472.5,166 c 2.79512,-6.32276 1.71904,7.11809 0,0 z M 455,165 c 1.80037,-5.76693 1.80037,5.76693 0,0 z m -24.1875,-0.68311 c -1.54356,-6.43035 4.89447,2.78644 0,0 z M 459,164 c -0.39187,-6.14106 2.85935,3.82455 0,0 z m 8,0 c 6.95458,-1.92167 -3.55902,15.57344 0,0 z m -25.5,-2 c 1.6811,-5.30723 1.69016,5.70093 0,0 z m -8.5,-1 c -0.39187,-6.14106 2.85935,3.82455 0,0 z m 13.45888,-0.0665 c -4.23174,-5.71732 3.96323,1.91555 0,0 z M 490.71025,160 c -1.01917,-15.76431 5.03913,8.02032 0,0 z m 14.17133,0.30226 c -30.74757,-22.94816 20.57255,-10.40456 0,0 z m -39.86152,-1.82643 c -3.50655,-10.48624 5.84918,0.76668 0,0 z M 403.55684,156.75 c -5.30078,-16.84552 6.59376,6.25198 0,0 z M 452.5,158 c -6.18374,-6.05869 7.9397,3.26184 0,0 z m -96.42105,-1.58333 c 3.67786,3.12999 -7.44719,2.95308 0,0 z M 396,155.94098 c 3.79694,-3.71019 -0.73924,5.56501 0,0 z M 419.5,155 c -1.95008,-7.25134 4.75599,3.5055 0,0 z m 27.5,0 c 1.80037,-5.76693 1.80037,5.76693 0,0 z m 12.65214,-0.53587 c -3.98698,-9.62321 7.71857,2.4428 0,0 z m 29.04317,-0.52128 c 7.8745,0.82156 -11.41971,14.29936 0,0 z m 5.99892,1.32346 c -6.82736,-7.34864 9.09305,0.60339 0,0 z m -69.26837,-1.9621 c -6.54931,-14.74349 6.13844,2.77872 0,0 z M 439,154 c 1.80037,-5.76693 1.80037,5.76693 0,0 z m 77,-1 c 1.80037,-5.76693 1.80037,5.76693 0,0 z m -99,-1 c -5.29105,-14.0519 8.45806,1.71268 0,0 z m 54.25,-1.78599 c 2.25459,-16.04569 12.31181,10.16651 0,0 z m 20.33295,1.9202 c -9.54515,0.18689 3.92043,-4.43068 0,0 z M 459,150.09106 c -3.83118,-7.94933 6.61005,3.14343 0,0 z m 28.50833,-0.10453 c 1.93533,-9.08989 5.94281,7.37238 0,0 z M 407,149.61663 c 1.68487,-7.43762 3.99799,6.39638 0,0 z M 422.5,149 c 2.96079,-3.86549 -0.40162,5.94253 0,0 z m 12.72917,-0.1875 c -7.5354,-10.74278 6.98884,1.2289 0,0 z M 497,148.55902 c -5.76337,-13.66211 6.33688,4.53676 0,0 z M 388,148 c -0.39187,-6.14106 2.85935,3.82455 0,0 z m 77,0.004 c 0.71967,-8.59797 5.73763,6.13432 0,0 z m 23.92872,-1.03129 c -11.38872,-6.51549 11.26006,-8.09614 0,0 z m 6.82128,-2.66184 c -20.59977,-23.89699 30.75061,-23.64614 0,0 z M 502,126.55902 c 5.76337,-13.66211 -6.33688,4.53676 0,0 z M 443.5,143 c -0.39187,-6.14106 2.85935,3.82455 0,0 z m 14.57895,-0.58333 c 3.67786,3.12999 -7.44719,2.95308 0,0 z M 303,142 c -0.39187,-6.14106 2.85935,3.82455 0,0 z m 64,0 c -0.39187,-6.14106 2.85935,3.82455 0,0 z m 44,-0.55902 c 5.9639,0.0655 -6.17484,5.61027 0,0 z M 481.116,139.75 c 7.38013,-7.49097 -3.2284,15.38695 0,0 z M 448,140 c 8.03607,-3.05446 -3.35232,17.62916 0,0 z m 13,-2.55902 c 5.9639,0.0655 -6.17484,5.61027 0,0 z M 380.5,136 c -1.25716,-7.35869 4.13591,3.99485 0,0 z m 39,0 c -1.25716,-7.35869 4.13591,3.99485 0,0 z m 54.5,-0.16712 c 2.21653,-8.63532 4.94929,7.40798 0,0 z M 436.0318,133.75 c -11.66696,-14.82923 7.77293,-1.39038 0,0 z M 389.71025,131 c -2.53114,-10.70405 3.92936,3.28126 0,0 z m 68.94762,0.4492 c -12.01806,17.06494 -3.41353,-8.73184 0,0 z m -36.2,-0.51737 c -14.37842,9.54863 0.4128,-9.58372 0,0 z M 468,131.03797 c -1.85214,-14.0365 6.16019,8.29495 0,0 z M 380.5,130 c 4.86888,-3.41535 -1.95273,7.05721 0,0 z m 5,0 c -0.39187,-6.14106 2.85935,3.82455 0,0 z m 24.57895,-0.58333 c 3.67786,3.12999 -7.44719,2.95308 0,0 z M 407,129 c 6.95458,-1.92167 -3.55902,15.57344 0,0 z m 22.03327,-1.88976 c -1.06966,-21.55757 17.39812,9.92185 0,0 z M 476,128.41667 c 5.54174,-4.2971 -2.32637,8.01826 0,0 z M 440.5,128 c 0.0618,-10.43394 5.88462,6.27234 0,0 z m -59.79162,-0.62495 c -13.95203,-7.68872 10.3204,-1.22911 0,0 z M 487,126.94098 c 3.79694,-3.71019 -0.73924,5.56501 0,0 z m -61,-1 c 3.79694,-3.71019 -0.73924,5.56501 0,0 z M 460.5,125 c -1.95008,-7.25134 4.75599,3.5055 0,0 z M 374,123 c 1.80037,-5.76693 1.80037,5.76693 0,0 z m 39,-0.0797 c 5.049,-6.56651 1.14448,8.46733 0,0 z m 28.25,0.37588 c -1.03997,-7.95226 6.2912,5.01173 0,0 z m 6.34105,-0.14891 c -2.76568,-10.10157 9.7419,3.82928 0,0 z m -45.0081,-1.01311 c -9.54515,0.18689 3.92043,-4.43068 0,0 z M 493,122 c 1.80037,-5.76693 1.80037,5.76693 0,0 z m -103.39522,-2.58753 c -11.39368,-4.22054 5.93114,-2.26585 0,0 z M 373,119.05902 c -5.15686,-6.55354 5.8461,1.43831 0,0 z m 40,0.0634 c -9.24286,-7.6999 8.15666,-0.46328 0,0 z M 433.55684,117.75 c -12.0079,-13.75012 7.75698,-1.86299 0,0 z m -14.9671,-0.37675 c -10.39467,-4.47069 7.20285,-7.03843 0,0 z M 377,116.5 c -6.13552,-8.79688 8.47185,1.43451 0,0 z m 49,-0.88197 c -10.70753,-7.76735 7.13044,-1.00459 0,0 z M 449,115 c 1.80037,-5.76693 1.80037,5.76693 0,0 z m -37.5,-1 c -0.39187,-6.14106 2.85935,3.82455 0,0 z m -25.91016,-1.90072 c 1.71274,-10.02694 7.36958,24.16625 0,0 z m 110.79945,-1.01335 c -15.14071,-11.05575 7.51946,-5.24391 0,0 z M 375.76963,111 c 18.93057,-0.66229 -3.22237,-7.11753 0,0 z M 417,112 c -0.48586,-7.17028 4.151,4.83729 0,0 z m -4.57143,-2 c -3.12713,-14.363295 5.17441,5.02632 0,0 z M 408,108 c -0.48586,-7.17028 4.151,4.83729 0,0 z m 14.82732,-1.15416 c -24.43822,-14.087534 19.17213,-20.762076 0,0 z m 3.20864,1.40416 c 0.006,-12.356609 14.60726,1.45906 0,0 z m -11.47167,-3.95687 c 5.60185,2.53231 -7.58704,8.43593 0,0 z m -15.88783,-2.69389 c -9.1524,-5.595213 7.0059,-0.81507 0,0 z M 410,101 c 1.80035,-5.766921 1.80037,5.76692 0,0 z m 4,0.16667 c -0.16415,-8.645481 5.30336,6.4675 0,0 z m -1.4692,-4.216499 c 3.43963,-8.023155 3.99417,8.012079 0,0 z M 535.72917,210.39583 c -1.25062,-4.40722 -1.96877,3.87917 0,0 z m -38.34761,-1.94777 c -5.63133,2.02738 8.76934,6.62045 0,0 z M 521.25,175.33772 c 0.30703,-6.11958 -4.11636,3.72883 0,0 z m 4.47917,0.0581 c -1.25062,-4.40722 -1.96877,3.87917 0,0 z M 521,169.96419 c -11.97492,-13.359 -4.5077,7.12321 0,0 z M 301.5,105.7784 C 319.6869,99.211432 399.8489,70.421156 349.96544,73.274988 323.54717,62.654481 299.92341,35.155568 288.13545,80.360485 284.6968,89.819179 288.4013,106.92028 301.5,105.7784 Z m -7.42105,-6.361733 c 3.67777,3.130143 -7.44726,2.952853 0,0 z M 323.5,93 c -1.25716,-7.358699 4.1359,3.994845 0,0 z m -30,-3 c -0.3919,-6.141096 2.85943,3.824483 0,0 z m 5.05279,0.08541 c -1.67076,-6.516432 5.08136,4.408504 0,0 z m 13.51115,-1.856591 c 5.19833,-12.257635 10.56757,9.203379 0,0 z m 14.90837,0.241708 c -11.04076,-1.854308 6.7417,-7.440211 0,0 z M 306,88.187544 c -18.9873,-14.882117 21.2756,-4.102852 0,0 z m 25,-0.746561 c 5.96389,0.06551 -6.17486,5.610244 0,0 z m -37.45729,-2.371885 c -6.81578,-4.601356 4.99714,-0.913935 0,0 z M 335.75,84.210676 c -4.72189,-5.878386 9.63863,2.535533 0,0 z m -19.24816,-1.213648 c 0.81299,-10.190407 8.26037,7.142508 0,0 z m 26.06292,-1.892243 c -5.08638,-5.675811 5.68064,1.001523 0,0 z m -48.22615,-2.664772 c -3.93375,-11.728166 9.40316,5.74941 0,0 z m 40.40172,-1.325008 c -16.15966,-7.484355 7.42784,-4.521275 0,0 z M 312,76.606989 c -1.48756,-10.694636 7.48562,5.801799 0,0 z m 10.25,0.217249 c 5.39063,-11.916076 6.42432,11.151092 0,0 z M 309,73 c 1.80037,-5.766932 1.80037,5.766932 0,0 z m -2.43524,-6.895215 c -5.08638,-5.675811 5.68064,1.001523 0,0 z M 333,65 c 1.80037,-5.766932 1.80037,5.766932 0,0 z M 315,46.428571 c -7.7699,-7.103104 8.64203,-2.441633 0,0 z m 124,61.130449 c 0.73924,-5.56501 -3.79694,3.71019 0,0 z M 463,105 c 4.19263,-16.269481 -5.33846,4.68931 0,0 z m 28,-10.632113 c -10.69944,3.06949 14.12953,10.001253 0,0 z M 476.66228,92.75 c -3.72882,4.116371 6.11958,-0.30706 0,0 z M 449,88.440983 c -6.60538,-2.353624 9.56243,11.902967 0,0 z M 494.5,87 c 1.97155,-8.467806 -5.71207,4.256471 0,0 z m -54.86163,-5.5 c 17.74755,5.362567 -4.66064,-6.136984 0,0 z m 12.46696,-0.75 c 9.85556,-3.789915 -7.77484,-6.632865 0,0 z m 22.62384,0.645833 c -1.25055,-4.407218 -1.96884,3.879105 0,0 z M 481.72713,80 c 1.64599,-10.421062 -9.04224,-1.5014 0,0 z M 351,76.294222 c -10.54856,-0.197839 15.19182,13.087518 0,0 z M 476,77 c 1.57982,-10.273579 -6.8664,6.177241 0,0 z M 354.86807,72.935917 c 18.82212,-17.983784 -20.69451,-8.834491 0,0 z m 115.63667,-2.928246 c -6.99287,-5.598635 1.83387,7.499167 0,0 z m -3.81679,-3.653054 c -12.7943,-5.051749 2.15669,14.681427 0,0 z M 366,69.572478 c 22.52216,-2.630301 -13.01358,-19.135898 0,0 z m 24.45729,-0.50338 c -5.07697,-7.099008 -1.90695,8.674645 0,0 z M 476.6408,69 c 15.35855,-14.457443 -12.09025,3.790688 0,0 z M 324.80963,67.25 c -4.41206,-11.354645 -2.80762,9.603441 0,0 z m 74.12195,-6.610151 c 15.60569,-20.548942 -19.74481,7.467288 0,0 z m -20.86711,-0.100003 c 8.38031,-8.155768 -20.67378,11.056711 0,0 z M 342.68311,58.8125 c -2.71736,5.084623 6.57349,-1.741253 0,0 z M 338,57.559017 c 6.70296,-15.396792 -7.27479,2.868531 0,0 z M 362,58 c -4.50188,-7.677884 -0.0369,10.062805 0,0 z m 8,-4.690322 c -7.8201,-2.48511 8.48742,11.8344 0,0 z m -38.77872,-2.974187 c 3.97555,-19.019249 -5.18858,7.333302 0,0 z m 3.17498,3.074267 c 9.62098,-12.386004 -8.37616,3.922257 0,0 z M 178,50.5 c -5.27598,-4.478918 2.36133,9.140569 0,0 z M 351,51 c -1.80037,-5.766932 -1.80037,5.766932 0,0 z m 23.68311,-3.1875 c -2.71736,5.084623 6.57349,-1.741253 0,0 z M 340.12805,43.5 c -3.59445,-14.219049 -1.19383,10.439229 0,0 z M 372,45.940983 c -7.10955,-5.526681 6.09498,15.17311 0,0 z m 65.65492,1.515889 c -5.28878,-4.80899 2.40204,12.961845 0,0 z M 363,46.5 c -7.81867,-1.851176 6.7146,18.94942 0,0 z m 78.5,0.5 c -4.2736,-3.979732 1.27168,7.137293 0,0 z M 326.97104,45.03906 c -1.17257,-8.26402 -6.30186,16.038017 0,0 z M 430,44 c -1.80037,-5.766932 -1.80037,5.766932 0,0 z m -44.2,-4.2 c 12.93832,-5.66381 -7.03405,-0.916643 0,0 z M 468,37.883369 c -5.23262,-6.872854 0.089,8.902139 0,0 z m -153.13112,0.774622 c -1.99042,-7.960847 -3.45926,14.812191 0,0 z m 12.11969,-5.380232 c 19.26431,-1.976457 -4.72432,-8.0735 0,0 z m 4.69454,-0.465259 c -2.71736,5.084623 6.57349,-1.741253 0,0 z M 363,32.10765 c 10.78662,0.01022 -3.6752,-8.634522 0,0 z M 369,30.5 c 16.8862,7.364976 0.41354,-9.595624 0,0 z m -51.92307,-1.40571 c -10.43815,-4.944632 1.55714,12.044523 0,0 z m -13.34776,-3.698457 c -1.25055,-4.407218 -1.96884,3.879105 0,0 z M 390,22.940983 c -6.03876,-1.466119 4.99004,6.300185 0,0 z m -19.50708,0.07047 c -5.82473,-0.991809 4.18665,5.636449 0,0 z M 369,16.071805 c -5.18525,-5.274826 1.34005,9.464286 0,0 z M 329,9.940983 c -1.10147,-12.7302505 -5.02625,8.380372 0,0 z M 333.36163,6.5 c -5.52219,-3.3051288 3.79511,9.355388 0,0 z M 321.5,6 c -2.96088,-3.8654051 0.40174,5.942559 0,0 z m -40.70176,632.46491 c 9.19209,-25.30023 44.97352,-40.16187 11.58745,-7.67413 l -5.48354,4.28869 z M 310.6735,638.25 c -4.64935,-24.9576 29.09248,-12.8179 0,0 z M 471,637.5 c 0.0688,-29.06937 36.39106,-7.91674 0,0 z m 50,0.5 c 2.49141,-7.22396 2.49141,7.22396 0,0 z m -272,-1.94709 c -0.82132,-27.58747 34.55174,-7.21532 0,0 z m 21,-1.18488 c -1.70131,-23.4323 28.89629,-10.75628 0,0 z m 81,-6.92417 c 42.58904,-12.45153 53.08746,-57.63828 44.74125,-66.32904 39.07736,-29.54629 42.78205,9.03907 11.48201,29.17712 C 391.17686,606.7132 372.03861,619.60326 351,627.94386 Z m 74.44236,-75.8506 c -3.51499,-4.86693 -0.6704,6.12487 0,0 z M 461,614.39329 c 4.43133,-25.46739 41.64446,-8.72813 0,0 z m -34.44923,-2.23333 c -3.22075,-27.6022 32.27756,-39.74167 0,0 z m -114.58656,-2.99561 c -5.54898,-13.06324 7.06648,-1.00606 0,0 z M 489,607 c -0.39187,-6.14106 2.85935,3.82455 0,0 z m -31.3537,-1.68704 c 0.41937,-24.73885 42.34845,-19.87988 5.56296,-4.01007 z M 390.5,604 c -1.25716,-7.35869 4.13591,3.99485 0,0 z M 319,591 c -0.39187,-6.14106 2.85935,3.82455 0,0 z m 117.00138,-55.12756 c 2.65195,-11.73864 14.03874,-3.79591 0,0 z M 170.73916,503.33713 c -9.96792,-3.65966 6.84346,-7.03574 0,0 z m 4.59417,-1.07861 c 5.09313,-5.37235 -0.96708,9.36797 0,0 z m -12.8502,-0.28581 c -6.01085,-7.93421 9.11962,1.93761 0,0 z M 180,501 c -5.44725,-9.60024 9.32311,1.1399 0,0 z m -24,0 c -0.43407,-9.2023 4.79845,5.76206 0,0 z m 42,-4.5 2.76452,3.19747 z m -48.5,2.66667 c -1.73284,-7.15754 6.99794,5.42313 0,0 z m -5.5,-2.72569 c 4.04322,-16.30626 9.51354,12.86559 0,0 z m 74.68181,0.1722 c 5.89858,-2.82536 -3.4502,7.48758 0,0 z M 161,496 c 1.80037,-5.76693 1.80037,5.76693 0,0 z m 2.99813,-1.50493 -1.61449,-1.62526 z m 62.45974,0.43676 c -11.5693,11.91368 -4.35731,-8.62679 0,0 z m -37.91516,-2.86273 c -6.8159,-4.60124 4.99713,-0.91408 0,0 z M 136,489.97856 c -0.0118,-10.44236 8.74869,4.58288 0,0 z M 148.63837,489.5 c -8.4997,-7.52899 11.1229,-2.1301 0,0 z M 177,490 c -0.39187,-6.14106 2.85935,3.82455 0,0 z m 15.25,-0.0723 c -4.47058,-9.10198 19.25002,14.78902 0,0 z m 17.75,0.0132 c 3.79694,-3.71019 -0.73924,5.56501 0,0 z m -51.82782,-1.59652 c -7.33262,-9.85321 8.26508,-2.23924 0,0 z m -33.67055,-1.60745 c 0.12231,-31.36615 28.94863,5.91466 0,0 z M 155,487.44098 c 5.9639,0.0655 -6.17484,5.61027 0,0 z m 27.45888,0.49249 c -4.23174,-5.71732 3.96323,1.91555 0,0 z M 163.36971,485.75 c -7.11894,-22.47881 11.44183,13.43143 0,0 z M 116,485.18034 c 0.0411,-11.46856 10.68984,5.33743 0,0 z M 138,485 c 1.80037,-5.76693 1.80037,5.76693 0,0 z m 6.19878,-1.61101 c -0.65273,-11.58004 9.36683,6.55098 0,0 z M 109.75,482.17204 c -1.9842,-16.0479 9.45569,0.18021 0,0 z M 154.63837,481.5 c -6.61002,-11.80031 6.29523,0.25126 0,0 z m 4.90434,0.5691 c -6.8159,-4.60124 4.99713,-0.91408 0,0 z M 104.11842,481.25 c -31.435796,7.8851 -65.904919,-52.83725 -13.867987,-38.34507 69.321587,4.19703 138.790387,4.84671 208.217747,5.33648 -25.35956,10.79766 -83.6918,-1.94721 -91.79436,5.14266 24.89607,4.951 83.89281,-5.12484 91.31138,4.14494 -24.56495,6.57028 -92.5749,-5.90374 -88.39448,4.16767 28.33172,5.79751 86.07421,-2.79802 98.75598,5.00496 -51.67098,2.06574 -103.77976,14.52972 -154.62599,-0.95712 -17.59797,-0.50295 -35.86363,4.08543 -49.60229,15.50548 z M 108,477 c 0.39187,-6.14106 -2.85935,3.82455 0,0 z m -4.08043,-3.41137 c 0.17365,-18.79626 -17.815114,7.89901 0,0 z M 85.052821,468.5 c -5.418861,-4.84417 1.536033,7.9477 0,0 z M 91,469 c -2.491417,-7.22397 -2.491417,7.22397 0,0 z m 18.66139,-2.44001 c -1.15393,-12.36474 -3.99787,7.88859 0,0 z m -6.13493,-0.36686 c -3.779792,-3.12826 0.19283,4.73807 0,0 z m 92.6078,0.46864 c -14.554,-23.39182 -102.329614,-10.63957 -43.64768,-4.44667 14.45185,2.27615 29.01883,3.94212 43.64768,4.44667 z M 105,457 c 1.80037,-5.76693 1.80037,5.76693 0,0 z m 39.26903,0.30701 c 0.0136,-6.80982 4.53445,4.25961 0,0 z M 88.999294,464.75 c -3.945356,-8.98003 -4.212118,7.3444 0,0 z M 117.5,462 c 1.25716,-7.35869 -4.13591,3.99485 0,0 z m 59.5,19.11803 c -3.04131,-5.89182 5.47466,2.55353 0,0 z M 276.5,480 c 2.96079,-3.86549 -0.40162,5.94253 0,0 z M 125,479 c -0.48586,-7.17028 4.151,4.83729 0,0 z m 37.5,-1 c -1.60444,-10.49269 5.86136,4.956 0,0 z m 9.5,0 c 1.80037,-5.76693 1.80037,5.76693 0,0 z m -20.37409,-4.3225 c 1.74596,-10.46929 2.74378,7.05915 0,0 z m -12.43079,-2.01444 c 5.7736,-8.67204 1.68623,10.35479 0,0 z m 141.06195,1.09955 c 7.57359,2.89627 -14.01766,12.18702 0,0 z M 114.75,472.31067 c -14.67074,-11.10747 7.42379,0.76456 0,0 z m 5.25,-1.41766 c -3.07861,-9.75901 7.81892,4.21402 0,0 z M 346,460 c 1.80037,-5.76693 1.80037,5.76693 0,0 z m -16,-13.2128 c 3.43163,-7.24711 2.2721,7.48303 0,0 z m 175.55577,0.30304 c 0.81745,-7.25019 5.16605,9.40696 0,0 z M 537.15789,446 c 0.80601,-4.90352 0.80601,4.90352 0,0 z m 2.38482,1.0691 c -6.81603,-4.60104 4.99707,-0.91429 0,0 z M 41.078947,446.46058 c -8.924202,7.05378 -0.617057,-10.35892 0,0 z M 528.33333,443.7619 c -8.98588,-6.47044 8.41772,-5.06971 0,0 z M 542.15789,443 c 0.80601,-4.90352 0.80601,4.90352 0,0 z M 213,440.94098 c 3.79694,-3.71019 -0.73924,5.56501 0,0 z m -101.73625,-0.65856 c 2.27507,-9.87572 6.49133,5.21836 0,0 z M 542,439.11803 c -3.04131,-5.89182 5.47466,2.55353 0,0 z m -39.45729,-1.04893 c 1.845,-6.56022 2.3688,7.38293 0,0 z M 512,438 c 1.80037,-5.76693 1.80037,5.76693 0,0 z m 22.73863,-1.41305 c -18.52213,-10.59832 17.66585,-3.76893 0,0 z M 507.03041,435.45 c 3.59751,-5.77832 -1.508,10.11405 0,0 z M 524,434.15499 c -11.05592,-7.87275 7.48044,-5.68623 0,0 z m -211.38062,0.82563 c 18.53988,-6.81842 98.75738,-19.43211 43.64623,-5.39496 -14.52773,1.9672 -29.26543,2.37265 -43.64623,5.39496 z M 544,434 c 1.80037,-5.76693 1.80037,5.76693 0,0 z m -38,-3 c 1.80037,-5.76693 1.80037,5.76693 0,0 z m 32.79046,-2.54288 c -9.49445,-5.19401 8.64777,-2.72564 0,0 z M 503.19495,425.5 c 4.40456,2.96481 -11.66777,7.67752 0,0 z M 522,427.59106 c -1.61177,-5.92605 5.08637,3.19862 0,0 z m -3,-2.34726 c -4.62809,-18.80061 19.60907,2.396 0,0 z m 10,-0.69675 c 0.92668,-10.17835 12.09933,2.77906 0,0 z m 12.57819,-1.73367 c -10.84525,-6.08232 10.10775,-8.63708 0,0 z M 545,418 c -0.97995,-8.14374 3.35797,4.75816 0,0 z m -36,0.059 c -5.15686,-6.55354 5.8461,1.43831 0,0 z M 520,416 c -0.97995,-8.14374 3.35797,4.75816 0,0 z m 14,-1.44098 c -14.74717,-14.93037 10.05914,-0.4708 0,0 z M 546.5,414 c -0.39187,-6.14106 2.85935,3.82455 0,0 z M 514,411.46862 c -2.23754,-7.32595 4.80454,3.7664 0,0 z M 494,409 c -5.40053,-8.56095 9.88529,-0.90371 0,0 z m 51.47866,-1.97642 c 0.64736,-18.82584 7.54037,3.41084 0,0 z m 5.27661,-1.10175 c -21.87465,-8.99457 17.84267,-6.92457 0,0 z m -16.02545,0.003 c -6.27774,-12.85392 5.79333,1.859 0,0 z M 516,406.62244 c -2.42718,-5.39724 5.36594,1.79615 0,0 z M 528.15789,405 c 0.80601,-4.90352 0.80601,4.90352 0,0 z m -4.61518,0.0691 c -6.81603,-4.60104 4.99707,-0.91429 0,0 z m -15.68193,-2.10237 c -2.62999,-11.73734 12.81276,-9.49373 0,0 z m 27.88922,0.28726 c -4.75943,-7.55908 9.29189,0.61651 0,0 z m -33.5625,-1.31649 c -7.68713,-10.32792 7.57247,1.31818 0,0 z M 542,400.41667 c 6.38413,-6.14827 -4.35587,15.39544 0,0 z m -24.49445,-5.4228 c 0.0354,-16.66442 6.02429,2.2629 0,0 z M 542,395 c 1.80037,-5.76693 1.80037,5.76693 0,0 z m -20,-1 c 1.80037,-5.76693 1.80037,5.76693 0,0 z m 7.8,-2.2 c -10.93114,-6.69068 9.69959,-1.77133 0,0 z M 518,389.55902 c -11.4209,-7.50198 6.11188,-2.3529 0,0 z m 5.07895,-2.14235 c 3.67786,3.12999 -7.44719,2.95308 0,0 z m -21.53624,-3.34757 c 5.42896,-5.8945 -1.33579,14.27198 0,0 z M 519,383.20578 c -10.45808,-11.22964 9.90257,-0.0481 0,0 z M 530,382.5 c 2.60974,-7.77918 3.49721,7.00122 0,0 z m 23.25,-0.16228 c -6.87426,-7.40686 9.57432,3.76424 0,0 z m 6.75,-1.11385 c 1.51027,-14.84745 12.08977,8.98802 0,0 z M 538.5,379 c -1.25716,-7.35869 4.13591,3.99485 0,0 z m 32.25,0.33772 c -12.09971,-8.24555 13.53495,-8.87667 0,0 z m -72.14699,-2.50439 c 1.06779,-6.37989 2.9137,5.3722 0,0 z m 22.44283,-2.91898 c -0.82984,-15.20181 4.93772,3.54437 0,0 z m 20.44397,0.46009 c -10.66873,-9.4485 8.8989,-2.26114 0,0 z M 548,375.11803 c -3.04131,-5.89182 5.47466,2.55353 0,0 z m -38.40344,-1.9618 c -11.73105,-9.16862 8.60349,-0.15699 0,0 z M 537,373.24055 c -6.65826,-7.55228 8.3301,-1.33614 0,0 z M 532,371 c 5.2638,-5.49494 -0.50849,8.23857 0,0 z m 16,-1.5 c 1.93545,-7.1112 1.93545,7.1112 0,0 z m -23.24931,-4.02387 c -11.37086,-16.33828 8.00863,1.62533 0,0 z m 34.46401,-2.69083 c 9.96261,-15.91992 10.96961,15.7035 0,0 z m -42.7877,-1.30677 c -0.17956,-15.25922 6.07319,3.56394 0,0 z M 550.2,360.8 c -11.5951,0.0279 4.08918,-8.45944 0,0 z m 23.4683,-2.05328 c -12.84706,-4.22232 10.18175,-11.62384 0,0 z m -16.09973,-0.51149 c -1.12698,-17.4562 16.67067,5.25014 0,0 z m 7.07912,0.004 c -1.29727,-11.46025 9.71661,6.42723 0,0 z M 542.5,355 c -10.76869,-7.88621 8.53801,0.0414 0,0 z m 11.79442,-0.77284 c -12.81981,-3.56853 4.66884,-7.36163 0,0 z m -13.78434,-6.21085 c -2.00209,-7.55204 7.0093,3.87573 0,0 z m -5.49534,-1.70729 c -12.95847,-6.56899 6.62421,-5.71497 0,0 z M 546,346.05902 c -5.15686,-6.55354 5.8461,1.43831 0,0 z M 561.5,345 c 9.25251,-1.18852 -2.58434,18.51581 0,0 z m -21.90344,-1.84377 c -11.73105,-9.16862 8.60349,-0.15699 0,0 z M 545,342 c 2.49141,-7.22396 2.49141,7.22396 0,0 z m 19.68229,-1.70506 c -0.67907,-7.55497 6.61144,4.01884 0,0 z M 549,337.5 c 9.03211,-2.505 1.75907,17.8622 0,0 z m 7,0.60699 c -5.02733,-6.11545 6.75151,1.01235 0,0 z m -17,-1.52343 c -3.4516,-7.60276 7.89842,2.1989 0,0 z m 13.17668,-2.25069 c -1.57602,-12.81041 5.49634,6.92201 0,0 z M 546.63837,332.5 c 5.52222,-3.30513 -3.79512,9.3554 0,0 z m 5.64288,-3.38126 c -6.14386,-8.73856 7.96076,-4.25927 0,0 z M 545.5,327 c -0.39187,-6.14106 2.85935,3.82455 0,0 z m -6.78975,-3 c -4.48411,-12.11273 5.19369,2.5843 0,0 z m 19.32016,-1.45 c -6.1952,-13.28499 5.59655,2.10726 0,0 z m 5.04189,-4.05 c -9.27459,-5.38165 4.76388,-7.72953 0,0 z M 540,318 c -0.39187,-6.14106 2.85935,3.82455 0,0 z m 3.02508,-5.1343 c -5.44489,-11.33938 12.05764,-2.99756 0,0 z m 11.61329,0.6343 c 4.03289,-3.77832 -2.13996,8.24224 0,0 z M 559,305 c -0.97995,-8.14374 3.35797,4.75816 0,0 z"
       id="path1" />
  </g>
</svg>
